<?xml version="1.0" encoding="UTF-8" standalone="no"?><!DOCTYPE svg PUBLIC "-//W3C//DTD SVG 1.1//EN" "http://www.w3.org/Graphics/SVG/1.1/DTD/svg11.dtd"><svg width="100%" height="100%" viewBox="0 0 1067 1067" version="1.1" xmlns="http://www.w3.org/2000/svg" xmlns:xlink="http://www.w3.org/1999/xlink" xml:space="preserve" xmlns:serif="http://www.serif.com/" style="fill-rule:evenodd;clip-rule:evenodd;stroke-linejoin:round;stroke-miterlimit:2;"><g id="Layer-1" serif:id="Layer 1"><path id="logo" d="M469.015,1033.48c-110.119,-62.99 -392.807,-227.969 -402.94,-235.159l-10.171,-7.217l-0,-526.497l10.818,-8.268c5.951,-4.547 35.174,-22.005 64.94,-38.795c29.767,-16.79 130.682,-73.796 224.257,-126.68c198.491,-112.178 167.533,-104.075 240.44,-62.933c32.378,18.271 128.582,72.541 213.786,120.599c211.316,119.192 196.328,109.76 198.663,125.021c4.597,30.048 0.279,514.52 -4.626,518.998c-18.141,16.562 -462.098,274.246 -472.264,274.115c-2.753,-0.034 -31.059,-14.969 -62.903,-33.184Zm88.785,-71.285c88.796,-50.003 362.796,-211.736 365.746,-215.887c6.127,-8.622 2.643,-93.314 -3.775,-91.743c-3.393,0.83 -90.553,49.093 -193.687,107.251c-225.932,127.401 -148.316,134.632 -464.568,-43.283c-138.56,-77.95 -124.254,-75.631 -124.194,-20.127c0.056,54.526 -15.284,39.203 115.748,115.593c305.061,177.844 276.633,164.019 304.73,148.196Zm-66.878,-331.662l0,-119.862l-11.736,-3.509c-156.073,-46.664 -147.026,-261.954 12.487,-297.152c192.441,-42.464 287.239,207.471 109.569,288.878l-25.82,11.831l0,119.838c0,65.911 1.173,119.839 2.605,119.839c3.419,-0 335.305,-186.677 342.471,-192.63c5.121,-4.255 5.453,-13.28 4.694,-127.718l-0.816,-123.14l-197.095,-110.937l-197.095,-110.937l-9.461,5.152c-16.28,8.866 -330.508,186.884 -356.85,202.164l-25.037,14.523l-0.816,123.255c-0.718,108.549 -0.235,123.706 4.052,127.035c9.455,7.344 341.08,193.013 344.936,193.122c3.068,0.09 3.912,-25.756 3.912,-119.752l0,0Zm83.181,-203.878c75.306,-43.378 37.57,-150.777 -50.648,-144.15c-66.637,5.006 -99.2,80.104 -55.467,127.92c25.659,28.054 73.014,35.297 106.115,16.23Z" style="fill:#ec6224;fill-rule:nonzero;"/></g></svg>